<svg version="1.2" xmlns="http://www.w3.org/2000/svg" viewBox="0 0 234 40" width="234" height="40"><style>tspan{white-space:pre}.t0{font-size: 32px;fill: #1e1e1e;font-weight: 700;font-family: "Lato-Bold", "Lato"}.t1{font-size: 32px;fill: #000000;font-weight: 700;font-family: "Lato-Bold", "Lato"}.t2{font-size: 32px;fill: #ff0000;font-weight: 700;font-family: "Lato-Bold", "Lato"}.s3{fill:#ff0000}.s4{opacity: .7;fill:#ffffff}.s5{opacity: .7;fill:#b40000}</style><text style="transform: matrix(1.218,0,0,1.218,41.564,34.231)" ><tspan x="0" y="0" class="t0">M</tspan><tspan  y="0" class="t0">a</tspan><tspan  y="0" class="t0">t</tspan><tspan  y="0" class="t0">i</tspan><tspan  y="0" class="t0">r</tspan><tspan  y="0" class="t1"> </tspan><tspan  y="0" class="t2">B</tspan><tspan  y="0" class="t2">a</tspan><tspan  y="0" class="t2">n</tspan><tspan  y="0" class="t2">k</tspan><tspan  y="0" class="t2">
</tspan></text><path class="s3" d="m18.5 4.5c-1.2 0-2.2-1-2.2-2.3c0-1.2 1-2.2 2.2-2.2c1.2 0 2.2 1 2.2 2.2c0 1.3-1 2.3-2.2 2.3z" /><path class="s3" d="m18.5 37.6c-10.2 0-18.5-6.3-18.5-14.1c0-7.7 8.3-14 18.5-14c10.2 0 18.5 6.3 18.5 14c0 7.8-8.3 14.1-18.5 14.1z" /><path class="s3" d="m18.5 18.7c-6.2 0-11.2-3.5-11.2-7.7c0-4.2 5-7.6 11.2-7.6c6.2 0 11.2 3.4 11.2 7.6c0 4.2-5 7.7-11.2 7.7z" /><path class="s3" d="m18.5 39.8c-5.3 0-9.5-1.2-9.5-2.8c0-1.6 4.2-2.8 9.5-2.8c5.3 0 9.5 1.2 9.5 2.8c0 1.6-4.2 2.8-9.5 2.8z" /><path class="s4" d="m7.3 11.8c0 0 11.2 5.2 22.4 0v1.1c0 0-11.3 5.2-22.4 0z" /><path class="s5" d="m9 35.3c0 0 9.5 4.4 19 0v1c0 0-9.6 4.4-19 0z" /></svg>